<svg xmlns="http://www.w3.org/2000/svg" viewBox="0 0 1600 900" preserveAspectRatio="xMidYMid slice">
  <defs>
    <radialGradient id="spaceGlow" cx="50%" cy="100%" r="120%">
      <stop offset="0%" stop-color="#1c2541" />
      <stop offset="55%" stop-color="#0b132b" />
      <stop offset="100%" stop-color="#03050d" />
    </radialGradient>
    <radialGradient id="star" cx="50%" cy="50%" r="50%">
      <stop offset="0%" stop-color="#ffffff" stop-opacity="1" />
      <stop offset="65%" stop-color="#bbd0ff" stop-opacity="0.75" />
      <stop offset="100%" stop-color="#ffffff" stop-opacity="0" />
    </radialGradient>
  </defs>
  <rect width="1600" height="900" fill="url(#spaceGlow)" />
  <g opacity="0.9">
    <circle cx="120" cy="180" r="3.5" fill="url(#star)" />
    <circle cx="280" cy="360" r="2.2" fill="url(#star)" />
    <circle cx="460" cy="520" r="2.8" fill="url(#star)" />
    <circle cx="640" cy="240" r="1.8" fill="url(#star)" />
    <circle cx="820" cy="420" r="3.2" fill="url(#star)" />
    <circle cx="990" cy="120" r="2.6" fill="url(#star)" />
    <circle cx="1170" cy="300" r="1.9" fill="url(#star)" />
    <circle cx="1350" cy="520" r="2.4" fill="url(#star)" />
    <circle cx="1500" cy="200" r="3.1" fill="url(#star)" />
    <circle cx="180" cy="640" r="2.9" fill="url(#star)" />
    <circle cx="360" cy="720" r="2.3" fill="url(#star)" />
    <circle cx="540" cy="840" r="1.7" fill="url(#star)" />
    <circle cx="720" cy="700" r="2.5" fill="url(#star)" />
    <circle cx="900" cy="780" r="2.1" fill="url(#star)" />
    <circle cx="1080" cy="660" r="3.4" fill="url(#star)" />
    <circle cx="1260" cy="740" r="2" fill="url(#star)" />
    <circle cx="1440" cy="820" r="2.7" fill="url(#star)" />
    <circle cx="200" cy="80" r="2.4" fill="url(#star)" />
    <circle cx="380" cy="160" r="1.8" fill="url(#star)" />
    <circle cx="560" cy="40" r="2.6" fill="url(#star)" />
    <circle cx="740" cy="120" r="2.1" fill="url(#star)" />
    <circle cx="920" cy="200" r="2.9" fill="url(#star)" />
    <circle cx="1100" cy="40" r="2" fill="url(#star)" />
    <circle cx="1280" cy="120" r="3" fill="url(#star)" />
    <circle cx="1460" cy="60" r="1.9" fill="url(#star)" />
    <circle cx="100" cy="820" r="2.2" fill="url(#star)" />
    <circle cx="320" cy="880" r="1.5" fill="url(#star)" />
    <circle cx="1280" cy="880" r="2.6" fill="url(#star)" />
    <circle cx="60" cy="420" r="2.4" fill="url(#star)" />
    <circle cx="150" cy="300" r="1.9" fill="url(#star)" />
    <circle cx="1380" cy="360" r="1.7" fill="url(#star)" />
    <circle cx="1540" cy="640" r="2.5" fill="url(#star)" />
    <circle cx="980" cy="560" r="1.6" fill="url(#star)" />
    <circle cx="860" cy="600" r="2.2" fill="url(#star)" />
    <circle cx="700" cy="560" r="2.8" fill="url(#star)" />
    <circle cx="520" cy="600" r="1.9" fill="url(#star)" />
    <circle cx="340" cy="560" r="2.1" fill="url(#star)" />
    <circle cx="1160" cy="540" r="2.3" fill="url(#star)" />
    <circle cx="1360" cy="600" r="1.8" fill="url(#star)" />
    <circle cx="1480" cy="760" r="2.1" fill="url(#star)" />
  </g>
</svg>
